[FRAME]
media_type=video
stream_index=0
key_frame=1
pkt_pts=0
pkt_pts_time=0.000000
pkt_dts=0
pkt_dts_time=0.000000
best_effort_timestamp=0
best_effort_timestamp_time=0.000000
pkt_duration=20
pkt_duration_time=0.200000
pkt_pos=0
pkt_size=3219
width=512
height=512
pix_fmt=bgra
sample_aspect_ratio=1:1
pict_type=I
coded_picture_number=0
display_picture_number=0
interlaced_frame=0
top_field_first=0
repeat_pict=0
color_range=unknown
color_space=unknown
color_primaries=unknown
color_transfer=unknown
chroma_location=unspecified
[/FRAME]
[FRAME]
media_type=video
stream_index=0
key_frame=0
pkt_pts=20
pkt_pts_time=0.200000
pkt_dts=20
pkt_dts_time=0.200000
best_effort_timestamp=20
best_effort_timestamp_time=0.200000
pkt_duration=20
pkt_duration_time=0.200000
pkt_pos=3219
pkt_size=1167
width=512
height=512
pix_fmt=bgra
sample_aspect_ratio=1:1
pict_type=P
coded_picture_number=0
display_picture_number=0
interlaced_frame=0
top_field_first=0
repeat_pict=0
color_range=unknown
color_space=unknown
color_primaries=unknown
color_transfer=unknown
chroma_location=unspecified
[/FRAME]
[FRAME]
media_type=video
stream_index=0
key_frame=0
pkt_pts=40
pkt_pts_time=0.400000
pkt_dts=40
pkt_dts_time=0.400000
best_effort_timestamp=40
best_effort_timestamp_time=0.400000
pkt_duration=20
pkt_duration_time=0.200000
pkt_pos=4386
pkt_size=1191
width=512
height=512
pix_fmt=bgra
sample_aspect_ratio=1:1
pict_type=P
coded_picture_number=0
display_picture_number=0
interlaced_frame=0
top_field_first=0
repeat_pict=0
color_range=unknown
color_space=unknown
color_primaries=unknown
color_transfer=unknown
chroma_location=unspecified
[/FRAME]
[FRAME]
media_type=video
stream_index=0
key_frame=0
pkt_pts=60
pkt_pts_time=0.600000
pkt_dts=60
pkt_dts_time=0.600000
best_effort_timestamp=60
best_effort_timestamp_time=0.600000
pkt_duration=20
pkt_duration_time=0.200000
pkt_pos=5577
pkt_size=1218
width=512
height=512
pix_fmt=bgra
sample_aspect_ratio=1:1
pict_type=P
coded_picture_number=0
display_picture_number=0
interlaced_frame=0
top_field_first=0
repeat_pict=0
color_range=unknown
color_space=unknown
color_primaries=unknown
color_transfer=unknown
chroma_location=unspecified
[/FRAME]
[FRAME]
media_type=video
stream_index=0
key_frame=0
pkt_pts=80
pkt_pts_time=0.800000
pkt_dts=80
pkt_dts_time=0.800000
best_effort_timestamp=80
best_effort_timestamp_time=0.800000
pkt_duration=20
pkt_duration_time=0.200000
pkt_pos=6795
pkt_size=1171
width=512
height=512
pix_fmt=bgra
sample_aspect_ratio=1:1
pict_type=P
coded_picture_number=0
display_picture_number=0
interlaced_frame=0
top_field_first=0
repeat_pict=0
color_range=unknown
color_space=unknown
color_primaries=unknown
color_transfer=unknown
chroma_location=unspecified
[/FRAME]
[FRAME]
media_type=video
stream_index=0
key_frame=0
pkt_pts=100
pkt_pts_time=1.000000
pkt_dts=100
pkt_dts_time=1.000000
best_effort_timestamp=100
best_effort_timestamp_time=1.000000
pkt_duration=20
pkt_duration_time=0.200000
pkt_pos=7966
pkt_size=1058
width=512
height=512
pix_fmt=bgra
sample_aspect_ratio=1:1
pict_type=P
coded_picture_number=0
display_picture_number=0
interlaced_frame=0
top_field_first=0
repeat_pict=0
color_range=unknown
color_space=unknown
color_primaries=unknown
color_transfer=unknown
chroma_location=unspecified
[/FRAME]
[FRAME]
media_type=video
stream_index=0
key_frame=0
pkt_pts=120
pkt_pts_time=1.200000
pkt_dts=120
pkt_dts_time=1.200000
best_effort_timestamp=120
best_effort_timestamp_time=1.200000
pkt_duration=20
pkt_duration_time=0.200000
pkt_pos=9024
pkt_size=1131
width=512
height=512
pix_fmt=bgra
sample_aspect_ratio=1:1
pict_type=P
coded_picture_number=0
display_picture_number=0
interlaced_frame=0
top_field_first=0
repeat_pict=0
color_range=unknown
color_space=unknown
color_primaries=unknown
color_transfer=unknown
chroma_location=unspecified
[/FRAME]
[FRAME]
media_type=video
stream_index=0
key_frame=0
pkt_pts=140
pkt_pts_time=1.400000
pkt_dts=140
pkt_dts_time=1.400000
best_effort_timestamp=140
best_effort_timestamp_time=1.400000
pkt_duration=20
pkt_duration_time=0.200000
pkt_pos=10155
pkt_size=1248
width=512
height=512
pix_fmt=bgra
sample_aspect_ratio=1:1
pict_type=P
coded_picture_number=0
display_picture_number=0
interlaced_frame=0
top_field_first=0
repeat_pict=0
color_range=unknown
color_space=unknown
color_primaries=unknown
color_transfer=unknown
chroma_location=unspecified
[/FRAME]
[FRAME]
media_type=video
stream_index=0
key_frame=0
pkt_pts=160
pkt_pts_time=1.600000
pkt_dts=160
pkt_dts_time=1.600000
best_effort_timestamp=160
best_effort_timestamp_time=1.600000
pkt_duration=20
pkt_duration_time=0.200000
pkt_pos=11403
pkt_size=1207
width=512
height=512
pix_fmt=bgra
sample_aspect_ratio=1:1
pict_type=P
coded_picture_number=0
display_picture_number=0
interlaced_frame=0
top_field_first=0
repeat_pict=0
color_range=unknown
color_space=unknown
color_primaries=unknown
color_transfer=unknown
chroma_location=unspecified
[/FRAME]
[FRAME]
media_type=video
stream_index=0
key_frame=0
pkt_pts=180
pkt_pts_time=1.800000
pkt_dts=180
pkt_dts_time=1.800000
best_effort_timestamp=180
best_effort_timestamp_time=1.800000
pkt_duration=20
pkt_duration_time=0.200000
pkt_pos=12610
pkt_size=1219
width=512
height=512
pix_fmt=bgra
sample_aspect_ratio=1:1
pict_type=P
coded_picture_number=0
display_picture_number=0
interlaced_frame=0
top_field_first=0
repeat_pict=0
color_range=unknown
color_space=unknown
color_primaries=unknown
color_transfer=unknown
chroma_location=unspecified
[/FRAME]
